<svg xmlns="http://www.w3.org/2000/svg" xmlns:xlink="http://www.w3.org/1999/xlink" width="51" height="60"><defs><path id="a" d="M1239.74 2250.64h-6.86a.97.97 0 0 1-.98-.97v-6.76a.98.98 0 0 1 1.96 0v4.5l12.57-12.38a.99.99 0 0 1 1.38 0l5.02 4.94 11.75-11.59a.99.99 0 0 1 1.39 0c.38.38.38 1 0 1.37l-12.45 12.27c-.37.36-1.02.36-1.38 0l-5.02-4.94-11.8 11.62h4.42c.54 0 .98.44.98.97s-.44.97-.98.97zM1224 2239c0-13.32 11-24.15 24.5-24.15s24.5 10.83 24.5 24.15c0 13.31-11 24.14-24.5 24.14s-24.5-10.83-24.5-24.14zm1.96 0c0 12.25 10.11 22.21 22.54 22.21s22.54-9.96 22.54-22.21-10.11-22.22-22.54-22.22-22.54 9.97-22.54 22.22zm42.64 18.44c.38.37.38.99 0 1.36a28.55 28.55 0 0 1-20.1 8.2 28.54 28.54 0 0 1-20.1-8.2.96.96 0 0 1 0-1.36.99.99 0 0 1 1.39 0 26.77 26.77 0 0 0 37.42 0 .99.99 0 0 1 1.39 0zm-40.2-36.88a.96.96 0 0 1 0-1.37 28.44 28.44 0 0 1 20.1-8.2c7.6 0 14.73 2.91 20.1 8.2.38.38.38 1 0 1.37a.98.98 0 0 1-1.39 0 26.48 26.48 0 0 0-18.71-7.64 26.48 26.48 0 0 0-18.71 7.64.99.99 0 0 1-1.39 0z"/></defs><use fill="#1aabf4" xlink:href="#a" transform="translate(-1223 -2209)"/></svg>