<svg xmlns="http://www.w3.org/2000/svg" xmlns:xlink="http://www.w3.org/1999/xlink" width="57" height="51"><defs><path id="a" d="M708 2463.34V2505h-54v-48h19.36l.27.38 4.24 5.96zm-28.84 1.81l3.22 4.53h23.82v-4.53zm27.04 38.04v-31.7h-24.3v-.03a.9.9 0 0 1-.73-.38l-4.22-5.93h-.01l-4.5-6.34H655.8v44.38zm-19.8-19.02h3.6v14.49h-18v-14.5h3.6v-3.61c0-3 2.42-5.44 5.4-5.44 2.98 0 5.4 2.44 5.4 5.44zm-9 0h7.2v-3.62c0-2-1.61-3.63-3.6-3.63a3.61 3.61 0 0 0-3.6 3.63zm-3.6 1.81v10.87h14.4v-10.87zm3.6 4.53c0-2 1.61-3.62 3.6-3.62a3.61 3.61 0 0 1 .9 7.11v1.04a.9.9 0 1 1-1.8 0V2494a3.61 3.61 0 0 1-2.7-3.5zm1.8 0c0 1 .8 1.81 1.8 1.81a1.8 1.8 0 0 0 0-3.62c-1 0-1.8.81-1.8 1.8z"/></defs><use fill="#1aabf4" xlink:href="#a" transform="translate(-652 -2455)"/></svg>