<svg xmlns="http://www.w3.org/2000/svg" xmlns:xlink="http://www.w3.org/1999/xlink" width="58" height="58"><defs><path id="a" d="M1279 2477.47v.17l-9.37 25.7a2.32 2.32 0 0 1-2.25 1.66h-41.03a2.33 2.33 0 0 1-2.34-2.37h-.01v-40.04a2.5 2.5 0 0 1 2.5-2.5h1.17v-6.42h2.75v-1.84h2.75V2450h36.66v16.5h1.17a2.5 2.5 0 0 1 2.5 2.5v5.75h3.2c1.33 0 2.3 1.15 2.3 2.72zm-9.17-9.14v6.42h1.84V2469c0-.37-.3-.67-.67-.67zm-34.83-16.5v23.02l.05-.01c.2-.05.4-.09.62-.09H1268v-22.92zm-2.75 1.84v25.96l.86-2.35.06-.16v-23.45zm-2.75 33.5l.92-2.51v-29.16h-.92zm-3.67 9.94l1.84-5v-30.2h-1.17c-.37 0-.67.3-.67.68zm51.33-19.78c-.02-.25-.11-.75-.46-.75h-41.03a.52.52 0 0 0-.5.39l-.02.07-.15.4-.06.17-1.77 4.86-5.5 15.08-1.84 5.04c-.04.14.05.3.11.37.06.08.19.2.41.2h41.03c.23 0 .44-.15.5-.38zm-37.58-12.66c0-.51.41-.92.92-.92h22a.92.92 0 1 1 0 1.83h-22c-.5 0-.92-.4-.92-.91zm0-6.42c0-.5.41-.92.92-.92h9.17a.92.92 0 1 1 0 1.84h-9.17a.92.92 0 0 1-.92-.92zm0 12.83c0-.5.41-.91.92-.91h22a.92.92 0 1 1 0 1.83h-22c-.5 0-.92-.41-.92-.92z"/></defs><use fill="#1aabf4" xlink:href="#a" transform="translate(-1222 -2448)"/></svg>