<svg xmlns="http://www.w3.org/2000/svg" xmlns:xlink="http://www.w3.org/1999/xlink" width="22" height="30"><defs><path id="a" d="M965.07 3486.32h-2.35c.87.7 2.7 2.17 2.7 4.96 0 2.72-1.6 4-3.2 5.22-.49.48-1.06 1-1.06 1.8 0 .81.57 1.25.99 1.58l1.36 1.03c1.67 1.36 3.2 2.61 3.2 5.14 0 3.46-3.46 6.95-9.99 6.95-5.5 0-8.15-2.54-8.15-5.26 0-1.32.68-3.2 2.92-4.48 2.35-1.4 5.54-1.58 7.24-1.69-.53-.66-1.13-1.36-1.13-2.5 0-.62.19-.99.38-1.43-.42.04-.84.07-1.22.07-4.02 0-6.3-2.9-6.3-5.76 0-1.7.8-3.57 2.43-4.93 2.16-1.72 4.74-2.02 6.8-2.02h7.8zm-5.04 16.32c-.31-.04-.5-.04-.88-.04-.34 0-2.39.07-3.98.59-.84.3-3.26 1.17-3.26 3.78s2.61 4.48 6.67 4.48c3.64 0 5.58-1.69 5.58-3.96 0-1.88-1.25-2.87-4.13-4.85zm2.04-9.67c0-2.64-1.63-6.76-4.78-6.76a3.6 3.6 0 0 0-2.65 1.22 4.15 4.15 0 0 0-.84 2.72c0 2.46 1.48 6.54 4.74 6.54.95 0 1.98-.45 2.58-1.03.88-.85.95-2.02.95-2.69z"/></defs><use fill="#fff" xlink:href="#a" transform="translate(-947 -3484)"/></svg>