<svg xmlns="http://www.w3.org/2000/svg" xmlns:xlink="http://www.w3.org/1999/xlink" width="52" height="34"><defs><path id="a" d="M556 3498.9v10.06c0 .57-.46 1.03-1 1.03h-9.76c-.55 0-1-.46-1-1.03v-10.06c0-.57.45-1.03 1-1.03h3.88v-2.98H532.5v2.98h3.87c.55 0 1 .46 1 1.03v10.06c0 .57-.45 1.03-1 1.03h-9.75c-.55 0-1-.46-1-1.03v-10.06c0-.57.45-1.03 1-1.03h3.88v-2.98h-16.63v2.98h3.88c.55 0 1 .46 1 1.03v10.06c0 .57-.45 1.03-1 1.03H508c-.55 0-1-.46-1-1.03v-10.06c0-.57.45-1.03 1-1.03h3.87v-4c0-.58.45-1.04 1-1.04h17.63v-2.47h-7.46c-.55 0-1-.46-1-1.03v-9.3c0-.57.45-1.03 1-1.03h16.91c.55 0 1 .46 1 1.03v9.3c0 .57-.45 1.03-1 1.03h-7.45v2.47h17.62c.55 0 1 .46 1 1.03v4.01h3.87c.55 0 1 .46 1 1.03zm-31.96-10.6h14.91v-7.24h-14.9zm-7.3 11.63H509v8h7.75zm18.63 0h-7.75v8h7.75zm18.62 0h-7.75v8H554z"/></defs><use fill="#fff" xlink:href="#a" transform="translate(-505 -3477)"/></svg>