<svg xmlns="http://www.w3.org/2000/svg" xmlns:xlink="http://www.w3.org/1999/xlink" width="60" height="60"><defs><path id="a" d="M1425 811.68v7.35h-42.29v-7.35h2.19l1.84-3.68h34.23l1.84 3.68zm-38.04 0h33.8l-.93-1.84h-31.96zm36.2 1.84h-38.61v3.67h1.84v-1.84h1.84v1.84h31.25v-1.84h1.84v1.84h1.84zm-38.61 7.35h1.84v5.52h-1.84zm36.77 0h1.84v27.58h-20.22v-1.84h18.38zm-5.51 23.9V826.4h-27.58v-5.52h31.25v5.52h-1.83v18.38zm1.84-20.22v-1.84h-27.59v1.84zm-14.71 3.68h11.03v1.83h-11.03zm0 3.67h11.03v1.84h-11.03zm0 3.68h11.03v1.84h-11.03zm0 3.68h11.03v1.84h-11.03zm0 3.68h11.03v1.83h-11.03zM1368 828.23h33.1V865H1368zm1.84 34.93h29.42v-33.1h-29.42zm22.98-11.03h4.6v9.2h-11.03v-9.2h4.6v-4.6h-12.88v4.6h4.6v9.2h-11.03v-9.2h4.6v-6.44h7.35v-4.6h-4.6v-9.19h11.03v9.2h-4.6v4.6h7.36zm-19.3 1.84v5.51h7.35v-5.51zm14.7-14.71v-5.52h-7.35v5.52zm0 14.7v5.52h7.36v-5.51z"/></defs><use xlink:href="#a" transform="translate(-1366 -806)"/></svg>