<svg xmlns="http://www.w3.org/2000/svg" xmlns:xlink="http://www.w3.org/1999/xlink" width="64" height="63"><defs><path id="a" d="M1230.4 2352.48c0-5.5 4.32-9.84 9.8-9.84 5.47 0 9.8 4.34 9.8 9.84s-4.33 9.83-9.8 9.83a9.82 9.82 0 0 1-9.8-9.83zm2.53.13a7.26 7.26 0 1 0 14.53-.01 7.19 7.19 0 0 0-7.26-7.28 7.28 7.28 0 0 0-7.27 7.29zm25.73 21.05v15.07a1.48 1.48 0 0 1-1.4 1.27h-33.99c-.76 0-1.27-.5-1.27-1.27v-15.07c0-4.09 3.3-7.53 7.5-7.53h5.72c.38 0 .64.12.9.38l4.2 4.21 4.2-4.21c.26-.26.51-.38.9-.38h5.72a7.54 7.54 0 0 1 7.52 7.53zm-2.67 13.8v-13.79a4.98 4.98 0 0 0-4.96-4.98h-5.1l-4.7 4.73c-.52.51-1.28.51-1.8 0l-4.7-4.73h-5.1a4.98 4.98 0 0 0-4.96 4.98v13.78zm24.69-43.15h-6.37v15.82c-.12.64-.76 1.27-1.4 1.27h-8.02c-.76 0-1.27-.5-1.27-1.27v-15.84h-6.37c-1.22 0-1.83-1.24-.9-2.16l11.72-11.75a1.23 1.23 0 0 1 1.78 0l11.72 11.75c.86.93.37 2.18-.9 2.18zm-3.19-2.56l-8.65-8.69-8.66 8.69h4.6c.75 0 1.26.5 1.26 1.27v15.84h5.6v-15.84c0-.76.52-1.27 1.27-1.27z"/></defs><use fill="#1aabf4" xlink:href="#a" transform="translate(-1220 -2328)"/></svg>