<svg xmlns="http://www.w3.org/2000/svg" xmlns:xlink="http://www.w3.org/1999/xlink" width="25" height="25"><defs><path id="a" d="M1175.87 1213.88a.4.4 0 0 1-.58 0l-6.13-6.44a8.56 8.56 0 0 1-5.51 2 8.7 8.7 0 0 1-8.65-8.72 8.7 8.7 0 0 1 8.65-8.72 8.73 8.73 0 1 1 6.12 14.88l6.11 6.42c.16.16.15.42-.01.58zm-4.4-13.16c0-4.35-3.51-7.89-7.82-7.89a7.87 7.87 0 0 0-7.83 7.9c0 4.34 3.51 7.88 7.83 7.88a7.87 7.87 0 0 0 7.82-7.89z"/></defs><use fill="#1d1208" xlink:href="#a" transform="translate(-1153 -1190)"/></svg>