<svg xmlns="http://www.w3.org/2000/svg" xmlns:xlink="http://www.w3.org/1999/xlink" width="59" height="58"><defs><path id="a" d="M694.08 2337.8h2.34v2.34h-2.34zm-5.87 0h2.34v2.34h-2.34zm-5.87 0h2.35v2.34h-2.35zm-15.5 16.39l8.1-3.39v1.52l-6.45 2.69 6.46 2.69v1.53l-8.1-3.64zm13.74-5.73l-3.52 12.64h-1.18l3.53-12.64zm9.04 7.13l-8.1 3.51v-1.52l6.46-2.68-6.46-2.7v-1.52l8.1 3.4zm10.91 18.38a6.5 6.5 0 0 1-6.45 6.43 6.5 6.5 0 0 1-6.46-6.43 6.5 6.5 0 0 1 6.46-6.44 6.5 6.5 0 0 1 6.45 6.44zm-2.35 0c0-2.23-1.87-4.1-4.1-4.1a4.15 4.15 0 0 0-4.11 4.1c0 2.23 1.87 4.1 4.1 4.1a4.14 4.14 0 0 0 4.11-4.1zm9.82-1.76v3.64c0 .83-.68 1.52-1.52 1.52h-2.2c-.16.54-.39 1.05-.64 1.55l1.56 1.55c.6.6.6 1.57 0 2.16l-2.57 2.57c-.6.6-1.57.6-2.17 0l-1.55-1.56c-.5.25-1.02.47-1.56.65v2.19c0 .83-.68 1.52-1.53 1.52h-3.64c-.84 0-1.52-.68-1.52-1.52v-2.2a10.5 10.5 0 0 1-1.56-.64l-1.56 1.56c-.6.6-1.57.6-2.17 0l-1.87-1.87h-29.33c-.7 0-1.17-.47-1.17-1.17V2333h50.48v30.73l1.71 1.7c.6.6.6 1.57 0 2.17l-1.56 1.55c.25.5.47 1.02.65 1.56h2.2c.84 0 1.53.68 1.52 1.5zm-52.65-29.5h45.78v-7.37h-45.78zm29 36.22c-.25-.5-.46-1.01-.65-1.55h-2.2c-.83 0-1.52-.68-1.52-1.52v-3.64c0-.83.68-1.51 1.52-1.51h2.2c.17-.54.4-1.06.65-1.56l-1.56-1.55c-.6-.6-.6-1.56 0-2.16l2.57-2.57c.6-.6 1.57-.6 2.17 0l1.56 1.56c.5-.25 1.01-.46 1.55-.65v-2.19c0-.83.68-1.52 1.53-1.52h3.64c.84 0 1.53.68 1.53 1.52v2.2c.54.16 1.06.39 1.55.64l1.56-1.56c.16-.15.35-.27.55-.34v-17.47h-45.78V2381h27.24c.08-.18.2-.36.34-.5zm21.3-3.9v-1.97h-2.78a8.8 8.8 0 0 0-1.91-4.6l1.96-1.95-1.39-1.39-1.96 1.96a8.94 8.94 0 0 0-4.6-1.9v-2.77H693v2.77c-1.73.2-3.31.87-4.6 1.9l-1.96-1.96-1.4 1.39 1.97 1.96a8.89 8.89 0 0 0-1.9 4.59h-2.78v1.95h2.77a8.8 8.8 0 0 0 1.91 4.6l-1.96 1.95 1.39 1.39 1.96-1.96a8.94 8.94 0 0 0 4.6 1.9v2.77h1.97v-2.77a8.86 8.86 0 0 0 4.6-1.9l1.96 1.97 1.4-1.39-1.97-1.95a8.89 8.89 0 0 0 1.9-4.6z"/></defs><use fill="#1aabf4" xlink:href="#a" transform="translate(-651 -2331)"/></svg>