<svg xmlns="http://www.w3.org/2000/svg" xmlns:xlink="http://www.w3.org/1999/xlink" width="76" height="55"><defs><path id="a" d="M654.25 2249.91H635.3c-.71 0-1.29-.57-1.29-1.28 0-.7.58-1.28 1.3-1.28h16.55c.88.95 1.7 1.84 2.4 2.56zm51.67 13.36a3.78 3.78 0 0 1-.59 1.45l-.09.11-.04.06a2 2 0 0 1-.08.1l-.12.12-.32.3-.35.29c-.22.17-.44.31-.66.47-.45.28-.9.54-1.38.76a20.4 20.4 0 0 1-6.2 1.82c-1.1.15-2.24.22-3.37.24a48.16 48.16 0 0 1-10.66-1 24.15 24.15 0 0 1-7.36-2.72 13.73 13.73 0 0 1-2.52-2l-.38-.4-.06-.08-.03-.04-.08-.1-.15-.19-.62-.76-.62-.82c-.4-.56-.8-1.11-1.16-1.7l-.2-.31h-19a1.29 1.29 0 0 1 0-2.57h25.72c.71 0 1.3.57 1.3 1.28 0 .71-.59 1.29-1.3 1.29h-3.53l.32.44.55.73.61.75.15.19.08.1.03.03.03.03.28.3a11 11 0 0 0 1.98 1.56 21.88 21.88 0 0 0 6.54 2.4 45.6 45.6 0 0 0 10.04.95c1.06 0 2.08-.07 3.06-.2a17.8 17.8 0 0 0 5.4-1.56c.39-.19.76-.4 1.1-.61l.48-.34.19-.15c.05-.05.08-.06.17-.16l.1-.1v-.01l.02-.02a1.2 1.2 0 0 0 .15-.4 2.8 2.8 0 0 0 0-.88 5.12 5.12 0 0 0-.65-1.83 3.2 3.2 0 0 0-.52-.67c.07.02-.21-.13-.49-.22-.58-.19-1.25-.33-1.89-.44-.64-.11-1.27-.2-1.86-.28-2.4-.31-4.33-.46-5.64-.58l-1.52-.14-.16-.02c-.53.47-.94.7-1.21.87-.3.18-.45.25-.45.25l-.02.01c-.55.28-1.22.06-1.5-.49a1.1 1.1 0 0 1 .2-1.27l.37-.36c.24-.23.62-.55.94-.9a2.34 2.34 0 0 0 .23-.33l-.01-.07a7.43 7.43 0 0 0-.15-.56c-.25-.84-.64-1.85-1.08-2.97-.45-1.12-.98-2.36-1.56-3.7l-.93-2.1a6.34 6.34 0 0 1-.41-1.47c-.09-.45-.14-.9-.18-1.35a62.35 62.35 0 0 1 .13-10.16l.06-.42.04-.23.03-.2v-.02a1.12 1.12 0 0 0-.29-.1 2.45 2.45 0 0 0-1.26.12l-.13.05-.16.08-.71.37-1.53.8a22.39 22.39 0 0 1-3.4 1.41c-.62.2-1.28.35-2.04.4-.35.03-.85.01-1.18-.05l-.94-.16a15.84 15.84 0 0 1-4.68-1.65l-.86-.47a7.76 7.76 0 0 1-1.79-1.39 9.85 9.85 0 0 1-2.26-3.77c-.12-.36-.2-.74-.27-1.15l-.04-.36-.01-.17v-.44l.01-.27c.05-.7.13-1.35.2-1.99.06-.63.1-1.25.07-1.75a2.26 2.26 0 0 0-.06-.4v-.01c-.07-.1-.2-.23-.34-.34-.32-.24-.72-.4-1.15-.42-.22-.01-.44 0-.67.05l-.36.08c-.1.05-.18.06-.31.12l-.23.1-.12.06h-.02l-.03.03-.38.2c-.27.18-.53.33-.8.52-.53.36-1.07.76-1.61 1.16-1.08.81-2.15 1.66-3.23 2.52l-3.26 2.6-1.67 1.3-.84.63c-.29.23-.54.4-.76.6-.47.4-.87.82-1.14 1.26-.27.44-.42.86-.41 1.28 0 .42.13.88.4 1.35.27.47.65.94 1.09 1.4.17.18.36.37.56.54h-3.53c-.15-.2-.3-.42-.42-.66a5.4 5.4 0 0 1-.75-2.63c0-.99.35-1.93.82-2.67a8.3 8.3 0 0 1 1.66-1.85c.3-.26.62-.5.89-.7l.82-.63 1.64-1.27 3.25-2.6a152 152 0 0 1 3.3-2.55c.56-.42 1.12-.83 1.71-1.23l.92-.6.52-.28.11-.06.06-.03.11-.05.23-.1c.19-.09.43-.17.64-.25.22-.05.42-.12.64-.15a4.77 4.77 0 0 1 3.92.87 3.97 3.97 0 0 1 1.14 1.36l.08.2a3.77 3.77 0 0 1 .2 1.06c.05.83-.03 1.52-.09 2.2-.06.67-.14 1.3-.18 1.9l-.02.21v.31l.02.07.01.12a7.3 7.3 0 0 0 1.82 3.48c.37.38.75.68 1.19.93a27.12 27.12 0 0 0 1.57.82 13.2 13.2 0 0 0 4.65 1.19c.44-.03.94-.14 1.44-.3 1-.3 2-.76 2.99-1.25.5-.24.98-.5 1.48-.76l.77-.4.2-.1.26-.11c.22-.1.37-.13.56-.19a5.02 5.02 0 0 1 2.2-.07c.38.08.78.2 1.18.44.4.24.82.64 1.04 1.2.11.26.17.55.18.82l-.01.38-.05.3-.04.18-.02.15-.05.34a59.55 59.55 0 0 0-.13 9.6c.04.41.09.8.15 1.16.06.35.14.68.23.87l.94 2.12a139 139 0 0 1 1.58 3.78c.46 1.16.86 2.19 1.16 3.18a9.88 9.88 0 0 1 .26 1.11l.77.07c1.31.12 3.25.27 5.74.58.63.08 1.29.17 1.99.3.7.12 1.43.26 2.26.53a6.08 6.08 0 0 1 1.07.48l.22.16.12.1.1.09c.36.36.67.77.91 1.19.5.84.84 1.75 1 2.8.07.52.1 1.08-.02 1.7zm-42.12-41.87l-.01-.02.01.02zm21.34 10.8zm0 0zm0 0zm-45.34 7.48c0-.7.58-1.28 1.3-1.28h18.33c.71 0 1.29.57 1.29 1.28 0 .71-.58 1.28-1.3 1.28H653l.86.92 2.84 3.07 1.41 1.5.35.36.35.35c.18.17.36.3.56.42.4.23.9.37 1.5.45.6.1 1.31.13 2.08.26a6.3 6.3 0 0 1 3.46 1.58l.18.17.08.08.05.05.1.1.4.44c.99 1.17 1.62 2.46 2.2 3.61h-2.99c-.38-.7-.78-1.35-1.25-1.9-.09-.12-.2-.21-.29-.32l-.12-.13-.19-.18a3.75 3.75 0 0 0-2.07-.9c-.59-.1-1.26-.14-2.02-.25a6.78 6.78 0 0 1-2.44-.77c-.4-.23-.77-.51-1.1-.83l-.38-.39-.37-.38c-.5-.51-.97-1.02-1.45-1.53l-2.84-3.08-2.54-2.7h-8.28c-.71 0-1.29-.57-1.29-1.28z"/></defs><use fill="#1aabf4" xlink:href="#a" transform="translate(-632 -2216)"/></svg>