<svg xmlns="http://www.w3.org/2000/svg" xmlns:xlink="http://www.w3.org/1999/xlink" width="66" height="52"><defs><path id="a" d="M565 839.58c0 6.6-1.8 13.31-5.14 18.42H547v-2.63h11.57c2.71-4.6 3.86-10.39 3.86-15.8 0-16.27-13.62-28.94-29.57-28.94-15.95 0-28.29 12.67-28.29 28.95 0 5.4 1.15 11.2 3.86 15.79H520V858h-12.86c-3.34-5.1-5.14-11.81-5.14-18.42 0-17.76 13.46-31.58 30.86-31.58S565 821.82 565 839.58zm-20.14-17.04l-4.65 11.99a10.65 10.65 0 0 1 2.2 13.2 10.25 10.25 0 0 1-8.92 5.25c-1.75 0-3.52-.45-5.14-1.4a10.62 10.62 0 0 1-3.76-14.35 10.25 10.25 0 0 1 8.92-5.25c1.2 0 2.41.23 3.58.68zm-7.5 13.12a7.6 7.6 0 0 0-10.54 2.88 7.98 7.98 0 0 0 2.82 10.76 7.6 7.6 0 0 0 10.54-2.88 7.97 7.97 0 0 0-2.82-10.76z"/></defs><use xlink:href="#a" transform="translate(-500 -807)"/></svg>