<svg xmlns="http://www.w3.org/2000/svg" xmlns:xlink="http://www.w3.org/1999/xlink" width="35" height="35"><defs><path id="a" d="M1366.1 3482.54c.67.68 1.02 1.48 1.02 2.32 0 .83-.34 1.64-1 2.34-.27.3-.56.6-.84.87-.42.41-.8.8-1.15 1.22l-.03.03a4.87 4.87 0 0 1-4.19 1.67 15.64 15.64 0 0 1-5.77-1.76 30.99 30.99 0 0 1-10.26-8.29 29.28 29.28 0 0 1-5.02-8.62c-.43-1.2-1-3.03-.83-5a5 5 0 0 1 1.42-3.15l2.23-2.31v-.02c.66-.65 1.44-.99 2.24-.99.8 0 1.56.34 2.2 1a31.35 31.35 0 0 1 1.83 1.9l1.8 1.83c1.37 1.42 1.37 3.26 0 4.68l-.56.57c-.48.5-.98 1.04-1.52 1.54.4.91.95 1.81 1.77 2.88 1.7 2.14 3.45 3.8 5.4 5.06.18.13.4.24.64.36l.5.27 2.08-2.12a3.12 3.12 0 0 1 2.24-1.04c.81 0 1.58.36 2.21 1.04zm-1.25 1.28l-3.6-3.72-.02-.01c-.2-.23-.54-.5-.95-.5-.4 0-.76.28-.99.5l-2.24 2.32c-.1.11-.45.46-1 .46-.2 0-.42-.05-.64-.16l-.08-.05c-.19-.12-.41-.24-.65-.36a8.06 8.06 0 0 1-.8-.45 24.32 24.32 0 0 1-5.82-5.46 14.9 14.9 0 0 1-2.14-3.63c-.12-.38-.23-.95.34-1.53l.03-.03c.57-.53 1.1-1.07 1.64-1.65l.57-.58c.7-.72.7-1.38 0-2.1l-1.8-1.84-.61-.65a33.8 33.8 0 0 0-1.2-1.23c-.21-.22-.55-.48-.96-.48-.33 0-.68.17-1 .48l-2.23 2.3a3.14 3.14 0 0 0-.9 2.01 9.9 9.9 0 0 0 .73 4.23 27.6 27.6 0 0 0 4.72 8.1 29.25 29.25 0 0 0 9.67 7.8 13.9 13.9 0 0 0 5.41 1.6c1.02 0 1.8-.35 2.46-1.08.41-.5.84-.93 1.27-1.35.28-.29.54-.54.8-.83 0 .01 0 0 0 0 .67-.71.67-1.42 0-2.11zm-10.81-18.26a.9.9 0 0 1 1.02-.75c2.08.37 3.97 1.38 5.47 2.93 1.5 1.55 2.49 3.5 2.84 5.64.08.5-.24.97-.73 1.05l-.15.02a.89.89 0 0 1-.87-.76 8.7 8.7 0 0 0-2.34-4.66 8.23 8.23 0 0 0-4.53-2.42.9.9 0 0 1-.71-1.05zm14.23 8.6h-.16a.89.89 0 0 1-.87-.75 15.46 15.46 0 0 0-4.17-8.3c-2.22-2.27-5-3.77-8.05-4.3a.91.91 0 0 1-.73-1.05.88.88 0 0 1 1.01-.75c3.43.6 6.54 2.27 9.01 4.82a17.32 17.32 0 0 1 4.68 9.29.9.9 0 0 1-.72 1.04z"/></defs><use fill="#fff" xlink:href="#a" transform="translate(-1336 -3457)"/></svg>