<svg xmlns="http://www.w3.org/2000/svg" xmlns:xlink="http://www.w3.org/1999/xlink" width="40" height="34"><defs><path id="a" d="M1020.78 3496.92c2.09-.17 3.5-1.1 4.05-2.38-.75.46-3.09.95-4.38.48-.06-.3-.14-.58-.2-.84-.99-3.56-4.36-6.43-7.88-6.09.28-.11.57-.22.86-.31.39-.14 2.67-.5 2.3-1.3-.3-.7-3.08.53-3.6.69.69-.26 1.83-.7 1.96-1.48-1.06.14-2.1.63-2.9 1.35.28-.3.5-.68.55-1.08-2.83 1.78-4.48 5.37-5.82 8.86-1.05-1-1.98-1.8-2.81-2.24a73.88 73.88 0 0 0-9.54-4.14c-.13 1.44.72 3.34 3.18 4.61-.53-.07-1.5.09-2.28.27.31 1.65 1.35 3 4.16 3.66-1.28.08-1.95.37-2.55.99.59 1.14 2.01 2.49 4.58 2.21-2.86 1.21-1.17 3.46 1.15 3.12a9.95 9.95 0 0 1-13.78.37c9.36 12.58 29.7 7.44 32.73-4.68 2.27.02 3.6-.78 4.43-1.65-1.3.22-3.2-.01-4.2-.42z"/></defs><use fill="#36b1f4" xlink:href="#a" transform="translate(-986 -3484)"/></svg>