<svg xmlns="http://www.w3.org/2000/svg" xmlns:xlink="http://www.w3.org/1999/xlink" width="63" height="62"><defs><path id="a" d="M972.38 828.98c0 4.06-1.58 7.87-4.45 10.74a15.1 15.1 0 0 1-10.75 4.44 15.18 15.18 0 1 1 10.75-25.91 15.07 15.07 0 0 1 4.45 10.73zm-27.04 6.4l3.64-3.76a3.09 3.09 0 1 1 5.76-1.53v.07l6.93 2.17a3.08 3.08 0 0 1 4.08-.98l4.71-4.6a13.35 13.35 0 0 0-3.76-7.28 13.39 13.39 0 0 0-9.52-3.94 13.46 13.46 0 0 0-11.84 19.86zm18.9-2.7a1.35 1.35 0 1 0 0 2.72 1.35 1.35 0 0 0 0-2.71zm-12.59-3.94a1.35 1.35 0 1 0 0 2.71 1.35 1.35 0 0 0 0-2.7zm19 .24l-3.7 3.61a3.09 3.09 0 1 1-5.8 1.45v-.06l-6.93-2.17a3.08 3.08 0 0 1-4 1.01l-3.93 4.07a13.5 13.5 0 0 0 10.9 5.54c3.59 0 6.97-1.4 9.51-3.94a13.36 13.36 0 0 0 3.95-9.5zm-9.6-11.02l-.58 1.64a10 10 0 0 0-9.82 1.87l-1.13-1.3a11.74 11.74 0 0 1 11.52-2.2zm3.75 2.17l-1.13 1.3c-.4-.35-.85-.66-1.3-.94l.9-1.48c.53.33 1.05.7 1.53 1.12zm-5.2 20.27a11.83 11.83 0 0 1-6.78-.58l.64-1.6c1.84.73 3.84.9 5.8.5zm34.4 17.54l-8.07 8.06-15.14-15.06 1.3-1.3-3.13-3.34a20.96 20.96 0 0 1-11.78 3.61 20.91 20.91 0 0 1-16.15-7.58l-1.27 1.32a3.09 3.09 0 1 1-1.25-1.2l1.46-1.5a20.95 20.95 0 1 1 36.53-20.1l1.9-1.85a3.09 3.09 0 0 1 4.25-4.15l5.24-5.12h-2.62V808h5.6v5.6h-1.72v-2.68l-5.31 5.19a3.09 3.09 0 0 1-4.2 4.11l-2.49 2.41a20.98 20.98 0 0 1-2.66 18.17l3.12 3.33 1.25-1.26zm-14.27-40.44a1.35 1.35 0 1 0 2.71 0 1.35 1.35 0 0 0-2.7 0zm-41.3 27.68a1.35 1.35 0 1 0-2.7 0 1.35 1.35 0 0 0 2.7 0zm32.35-2.61a19.21 19.21 0 1 0-27.2-27.17 19.21 19.21 0 1 0 27.2 27.17zm2.53 5.84l3.07-3.06-2.94-3.14a21.13 21.13 0 0 1-3.08 3.05zm18.24 9.53l-12.68-12.63-5.63 5.62 12.68 12.63zm-6.68-4.12l-1.23 1.22-4.78-4.77-1.25 1.25-1.22-1.22 2.47-2.48zm.26 2.7l1.22-1.22 1.28 1.28-1.22 1.22zm-41.75-5.72h1.73v1.88h-1.73zm0 10.55h1.73v1.89h-1.73zm14.25-6.92h1.74v1.88h-1.74zm24.81-15.55h1.73v1.88h-1.73zm1.97-15h1.73v1.88h-1.73zm5.73 7.94h1.73v1.89h-1.73z"/></defs><use xlink:href="#a" transform="translate(-932 -805)"/></svg>